<svg xmlns="http://www.w3.org/2000/svg" width="510.531" height="230" viewBox="0 0 510.531 230">
  <defs>
    <style>
      .cls-1 {
        stroke: #000;
        stroke-width: 1px;
        fill-rule: evenodd;
      }
    </style>
  </defs>
  <path fill="currentColor" id="aircraft" data-name="aircraft" class="cls-1" d="M256,135c-3.471-.013-6.5,8.642-9,19a126.021,126.021,0,0,0-3,24c-0.059,8.084-.073,16.54,0,24v2L4,206a6.554,6.554,0,0,0-2,2,9.245,9.245,0,0,0-1,3,8.835,8.835,0,0,0,0,3,5.43,5.43,0,0,0,2,3,5.269,5.269,0,0,0,3,1l236,14a7.788,7.788,0,0,1,2,1,8.2,8.2,0,0,1,3,4l5,109-23,4-12,2a4.234,4.234,0,0,0-3,2,6.549,6.549,0,0,0-1,3,1.847,1.847,0,0,0,1,2,7.552,7.552,0,0,0,3,1l39,4,40-4c1.33-.225,2.178-0.238,3-1,1.451-1.344.167-4.965-2-6a17.294,17.294,0,0,0-4-1l-32-6,4-108c0.063-1.925-.061-3.4,1-5,0.864-1.3,2.408-1.607,4-2l231-14a27.464,27.464,0,0,0,7-1,3.515,3.515,0,0,0,2-2,5.152,5.152,0,0,0,0-4,6.284,6.284,0,0,0-2-3c-1.686-1.348-3.644-.984-6-1l-235-2V178a91.942,91.942,0,0,0-2-23C262.9,145.374,259.792,135.014,256,135Z" transform="translate(-0.375 -134.5)"/>
</svg>
